<?xml version="1.0" encoding="UTF-8"?>
<svg width="170px" height="29px" viewBox="0 0 170 29" version="1.1" xmlns="http://www.w3.org/2000/svg" xmlns:xlink="http://www.w3.org/1999/xlink">
    <!-- Generator: Sketch 49.1 (51147) - http://www.bohemiancoding.com/sketch -->
    <title>Logo@2x</title>
    <desc>Created with Sketch.</desc>
    <defs></defs>
    <g id="Page-1" stroke="none" stroke-width="1" fill="none" fill-rule="evenodd">
        <g id="Page---Empty" transform="translate(-24.000000, -27.000000)">
            <g id="Header">
                <g id="Logo" transform="translate(24.000000, 27.000000)">
                    <path d="M16.5890502,23.570848 L8.35181279,23.570848 L8.35181279,5.70173311 L16.2579772,5.70173311 C20.0992785,5.70173311 22.3376119,7.65976014 22.3376119,10.7208142 C22.3376119,12.7034899 20.9011507,13.9829088 19.906379,14.4096385 C21.0936621,14.9133953 22.6139589,16.0406858 22.6139589,18.4258277 C22.6139589,21.7649493 20.0992785,23.570848 16.5890502,23.570848 M15.9532968,8.813625 L12.1946667,8.813625 L12.1946667,12.9287939 L15.9532968,12.9287939 C17.5838219,12.9287939 18.4966986,12.1019088 18.4966986,10.8710169 C18.4966986,9.64205068 17.5838219,8.813625 15.9532968,8.813625 M16.2020868,16.0672601 L12.1946667,16.0672601 L12.1946667,20.4589561 L16.2020868,20.4589561 C17.9428402,20.4589561 18.7730457,19.4549088 18.7730457,18.2509764 C18.7730457,17.0462736 17.9428402,16.0672601 16.2020868,16.0672601" id="Fill-1" fill="#1B2733"></path>
                    <polygon id="Fill-3" fill="#1B2733" points="26.5386301 23.5703473 30.3795434 23.5703473 30.3795434 5.70123243 26.5386301 5.70123243"></polygon>
                    <path d="M45.4147626,23.5712331 L41.5722968,16.443152 L38.8084384,16.443152 L38.8084384,23.5712331 L34.967137,23.5712331 L34.967137,5.70211824 L42.6788493,5.70211824 C46.6862694,5.70211824 49.0631644,8.18623986 49.0631644,11.1725777 C49.0631644,13.6828885 47.3767489,15.2388345 45.4694886,15.8662196 L49.8638721,23.5712331 L45.4147626,23.5712331 Z M42.4304475,8.81401014 L38.8084384,8.81401014 L38.8084384,13.5326858 L42.4304475,13.5326858 C44.1153105,13.5326858 45.2203105,12.5536723 45.2203105,11.1725777 C45.2203105,9.79302365 44.1153105,8.81401014 42.4304475,8.81401014 Z" id="Fill-5" fill="#1B2733"></path>
                    <path d="M65.3411689,21.8644682 C64.0417169,23.0441372 62.190347,23.571002 60.1445251,23.571002 L53.0425616,23.571002 L53.0425616,5.70150203 L60.1445251,5.70150203 C62.190347,5.70150203 64.0417169,6.22759662 65.3411689,7.40803581 C67.5515571,9.41690068 67.3311005,11.8748331 67.3311005,14.5599953 C67.3311005,17.2455426 67.5515571,19.8556034 65.3411689,21.8644682 M62.6599817,9.91834662 C61.9978356,9.19121149 61.1129041,8.81339392 59.785895,8.81339392 L56.8834749,8.81339392 L56.8834749,20.4591101 L59.785895,20.4591101 C61.1129041,20.4591101 61.9978356,20.0828331 62.6599817,19.3537723 C63.3795708,18.5511507 63.4897991,17.2717318 63.4897991,14.5599953 C63.4897991,11.8501845 63.3795708,10.7205831 62.6599817,9.91834662" id="Fill-6" fill="#1B2733"></path>
                    <polygon id="Fill-7" fill="#1B2733" points="96.8769452 8.81347095 96.8769452 13.2051669 104.643384 13.2051669 104.643384 16.3170588 96.8769452 16.3170588 96.8769452 23.5706939 93.036032 23.5706939 93.036032 5.70157905 105.997174 5.70157905 105.997174 8.81347095"></polygon>
                    <polygon id="Fill-8" fill="#1B2733" points="113.182856 8.81347095 113.182856 13.2051669 120.949295 13.2051669 120.949295 16.3170588 113.182856 16.3170588 113.182856 23.5706939 109.341943 23.5706939 109.341943 5.70157905 122.303084 5.70157905 122.303084 8.81347095"></polygon>
                    <polygon id="Fill-9" fill="#1B2733" points="125.648242 23.5703473 129.489155 23.5703473 129.489155 5.70123243 125.648242 5.70123243"></polygon>
                    <path d="M140.654274,23.7212818 C138.498224,23.7212818 136.729525,23.0184101 135.347402,21.7632547 C133.35747,19.9573561 133.413749,17.7231872 133.413749,14.6370993 C133.413749,11.5494709 133.35747,9.31568716 135.347402,7.50940338 C136.729525,6.25386284 138.498224,5.55137635 140.654274,5.55137635 C144.331009,5.55137635 147.205096,7.45856554 147.895187,11.1982277 L143.997995,11.1982277 C143.612584,9.76822095 142.61626,8.66326824 140.682219,8.66326824 C139.631557,8.66326824 138.774959,9.01451149 138.221489,9.59144392 C137.475507,10.3451534 137.254662,11.1982277 137.254662,14.6370993 C137.254662,18.0744304 137.475507,18.9275047 138.221489,19.6812142 C138.774959,20.2581466 139.631557,20.6093899 140.682219,20.6093899 C142.61626,20.6093899 143.612584,19.5063628 143.997995,18.0744304 L147.895187,18.0744304 C147.205096,21.8140926 144.302676,23.7212818 140.654274,23.7212818" id="Fill-10" fill="#1B2733"></path>
                    <polygon id="Fill-11" fill="#1B2733" points="151.211817 23.570848 151.211817 5.70173311 164.174511 5.70173311 164.174511 8.813625 155.052731 8.813625 155.052731 13.0058209 162.820721 13.0058209 162.820721 16.1177128 155.052731 16.1177128 155.052731 20.4589561 164.174511 20.4589561 164.174511 23.570848"></polygon>
                    <path d="M166.202868,0.000115540541 L166.202868,0.880919595 L169.027274,0.880919595 L169.027274,4.98992635 L169.221726,5.05539932 C169.343986,5.09776419 169.46547,5.14205473 169.58579,5.18596014 L169.999146,5.34271014 L169.999146,0.000115540541 L166.202868,0.000115540541 Z" id="Fill-13" fill="#1B2733"></path>
                    <path d="M169.221105,24.4182223 L169.028205,24.4836953 L169.028205,27.3421682 L165.710877,27.3421682 L165.710877,28.2233574 L170.000078,28.2233574 L170.000078,24.1305264 L169.586333,24.2872764 C169.464849,24.3331074 169.342589,24.3758574 169.221105,24.4182223" id="Fill-14" fill="#1B2733"></path>
                    <path d="M87.0323539,21.590252 C85.6735183,22.824225 84.0162123,23.5155426 81.814363,23.5155426 C79.6136781,23.5155426 77.9268744,22.824225 76.5680388,21.590252 C74.6114863,19.8136236 74.6658242,17.6156574 74.6658242,14.581948 C74.6658242,11.5451574 74.6114863,9.34834662 76.5680388,7.57210338 C77.9268744,6.33774527 79.6136781,5.6464277 81.814363,5.6464277 C84.0162123,5.6464277 85.6735183,6.33774527 87.0323539,7.57210338 C88.9892945,9.34834662 88.9629018,11.5451574 88.9629018,14.581948 C88.9629018,17.6156574 88.9892945,19.8136236 87.0323539,21.590252 M84.2320114,9.64567095 C83.6905731,9.07721149 82.8452306,8.70786689 81.814363,8.70786689 C80.7815548,8.70786689 79.9117603,9.07721149 79.3664406,9.64567095 C78.6336553,10.3843601 78.4442489,11.1989209 78.4442489,14.581948 C78.4442489,17.9599682 78.6336553,18.777225 79.3664406,19.5162993 C79.9117603,20.0851439 80.7815548,20.4544885 81.814363,20.4544885 C82.8452306,20.4544885 83.6905731,20.0851439 84.2320114,19.5162993 C84.9671256,18.777225 85.184089,17.9599682 85.184089,14.581948 C85.184089,11.1989209 84.9671256,10.3843601 84.2320114,9.64567095" id="Fill-15" fill="#2FBFD0"></path>
                    <polygon id="Fill-12" fill="#0070E0" points="0 0.270557432 0 27.9529155 5.94611872 27.9529155 5.94611872 25.3886858 2.82634703 25.3886858 2.82634703 2.83825338 5.45513699 2.83825338 5.45513699 0.270557432"></polygon>
                </g>
            </g>
        </g>
    </g>
</svg>